<?xml version="1.0" standalone="no"?>
<!DOCTYPE svg PUBLIC "-//W3C//DTD SVG 20010904//EN"
 "http://www.w3.org/TR/2001/REC-SVG-20010904/DTD/svg10.dtd">
<svg version="1.0" xmlns="http://www.w3.org/2000/svg"
 width="1364.000000pt" height="1364.000000pt" viewBox="0 0 1364.000000 1364.000000"
 preserveAspectRatio="xMidYMid meet">
<metadata>
Created by potrace 1.11, written by Peter Selinger 2001-2013
</metadata>
<g transform="translate(0.000000,1364.000000) scale(0.100000,-0.100000)"
fill="#000000" stroke="none">
<path d="M3515 12575 c-7 -5 -76 -122 -155 -260 -79 -137 -153 -266 -165 -285
-12 -19 -25 -42 -28 -50 -4 -8 -17 -31 -28 -50 -12 -19 -63 -107 -114 -195
-51 -88 -150 -259 -220 -380 -131 -225 -214 -369 -348 -601 -42 -72 -85 -146
-96 -165 -12 -19 -24 -40 -28 -48 -3 -7 -56 -100 -118 -205 -61 -105 -116
-200 -123 -211 -6 -11 -68 -119 -138 -240 -131 -229 -155 -270 -271 -470 -39
-66 -189 -325 -333 -575 -145 -250 -310 -535 -367 -634 -56 -98 -103 -181
-103 -184 0 -3 -6 -13 -14 -21 -8 -9 -26 -38 -40 -66 -15 -27 -31 -57 -36 -65
-6 -8 -55 -94 -111 -190 -182 -316 -222 -384 -264 -455 -23 -38 -44 -77 -48
-85 -4 -8 -15 -28 -26 -45 -10 -16 -28 -47 -40 -67 -46 -81 -60 -105 -95 -165
l-36 -62 76 -133 c99 -171 93 -161 218 -377 58 -102 106 -188 106 -193 0 -4 5
-8 10 -8 6 0 10 -4 10 -10 0 -5 67 -126 149 -267 82 -142 158 -275 170 -295
36 -65 56 -100 120 -206 33 -57 61 -105 61 -107 0 -3 51 -93 140 -245 21 -36
49 -84 62 -106 38 -67 268 -468 279 -484 13 -21 177 -306 207 -360 14 -25 64
-112 112 -195 124 -213 249 -431 298 -517 26 -45 394 -684 420 -728 11 -19 30
-53 42 -74 12 -22 54 -96 95 -165 214 -369 365 -631 365 -635 0 -2 17 -33 38
-67 22 -35 83 -140 136 -234 53 -93 101 -177 106 -185 5 -8 33 -57 62 -107
l53 -93 510 0 c281 0 1783 -2 3338 -3 1555 -2 2831 0 2836 3 8 5 48 73 176
295 71 122 203 350 225 389 11 17 25 42 33 56 15 28 30 54 109 190 31 52 65
111 76 130 153 267 357 619 367 635 7 11 13 25 14 30 1 6 8 17 15 25 10 12
237 401 460 790 8 14 53 90 99 170 178 307 307 530 382 660 42 74 101 176 130
225 107 183 228 391 248 425 10 19 61 107 112 195 423 728 880 1514 892 1535
14 24 8 36 -152 315 -92 160 -177 308 -190 330 -148 261 -644 1121 -666 1158
-16 26 -29 49 -29 52 0 2 -35 64 -78 137 -43 74 -81 140 -85 148 -4 8 -18 33
-30 55 -13 22 -104 180 -202 350 -98 171 -189 328 -201 350 -13 22 -27 47 -31
55 -3 8 -26 44 -49 80 -23 36 -202 342 -396 680 -195 338 -369 638 -386 666
-18 28 -32 54 -32 57 0 4 -16 31 -35 61 -19 30 -35 58 -35 61 0 4 -8 19 -19
33 -10 15 -31 50 -46 77 -26 48 -156 273 -347 603 -49 84 -101 174 -115 200
-14 26 -47 83 -73 127 -26 44 -66 113 -89 153 l-42 72 -1162 1 c-639 0 -2140
1 -3336 2 -1454 2 -2178 -1 -2186 -8z m6067 -1073 c7 -7 68 -113 187 -320 20
-35 41 -71 46 -80 22 -37 104 -179 122 -212 21 -37 393 -685 531 -925 44 -77
79 -141 77 -144 -3 -2 -300 -3 -662 -1 -1180 4 -1573 4 -1576 -1 -3 -4 -134
-230 -185 -319 -10 -19 -47 -81 -81 -138 -33 -57 -61 -107 -61 -112 0 -5 -3
-10 -7 -12 -5 -1 -15 -16 -24 -33 -8 -16 -130 -226 -269 -465 -139 -239 -283
-486 -319 -548 -36 -62 -76 -130 -88 -151 -12 -21 -126 -217 -254 -437 -127
-219 -239 -412 -249 -429 -9 -16 -38 -65 -64 -108 -25 -43 -46 -80 -46 -83 0
-2 -15 -27 -33 -56 -18 -29 -41 -69 -51 -89 -18 -34 -18 -36 3 -75 62 -115 97
-174 109 -186 6 -6 12 -15 12 -19 0 -3 25 -51 57 -105 31 -55 81 -143 112
-197 31 -54 61 -106 66 -115 14 -24 69 -120 93 -162 11 -19 43 -75 72 -125 29
-49 74 -128 100 -175 26 -47 95 -166 152 -266 58 -99 108 -187 111 -195 4 -8
15 -27 25 -44 10 -16 30 -50 44 -75 144 -254 735 -1281 748 -1300 l18 -24
1123 -4 c618 -1 1125 -5 1128 -7 2 -3 -1 -10 -7 -17 -8 -11 -315 -537 -397
-683 -13 -22 -50 -86 -84 -143 -34 -57 -61 -105 -61 -107 0 -2 -21 -39 -46
-82 -26 -43 -88 -150 -139 -238 -51 -88 -122 -211 -159 -274 -36 -62 -66 -117
-66 -122 0 -5 -8 -12 -17 -17 -10 -5 -965 -7 -2123 -6 -1158 2 -2380 3 -2715
3 l-610 1 -26 48 c-15 26 -84 146 -154 267 -70 121 -139 240 -153 265 -14 25
-62 108 -107 185 -45 78 -84 148 -88 155 -4 8 -17 31 -28 50 -22 36 -231 398
-266 460 -20 35 -127 220 -297 513 -50 87 -100 175 -112 195 -11 20 -33 60
-49 87 -15 28 -38 66 -50 85 -12 19 -24 42 -28 50 -4 8 -11 22 -17 30 -9 14
-53 91 -355 615 -76 132 -178 310 -228 395 -49 85 -97 169 -105 185 -8 17 -23
41 -32 55 -10 14 -31 50 -48 80 -16 30 -152 266 -301 525 -149 258 -269 476
-266 484 3 7 48 86 99 175 51 89 175 303 275 476 100 173 186 322 191 330 10
17 194 333 229 394 13 23 65 113 116 201 168 289 307 529 333 575 14 25 44 77
67 115 22 39 44 77 48 85 4 8 16 29 26 46 10 17 69 118 131 225 62 107 122
210 133 229 11 19 32 55 45 80 14 25 32 53 40 63 8 9 11 17 7 17 -4 0 -1 8 7
18 12 14 65 104 196 332 30 53 192 332 257 445 32 55 69 120 83 145 14 25 35
61 47 80 12 19 33 55 47 80 40 72 319 553 333 575 12 20 21 20 2731 17 1495
-1 2722 -6 2726 -10z"/>
</g>
</svg>
